<svg width="90" height="90" viewBox="0 0 90 90" fill="none" xmlns="http://www.w3.org/2000/svg">
<circle opacity="0.1" cx="45" cy="45" r="45" fill="#DC8A26"/>
<path d="M13.75 87.8125H15.9375V72.5H13.75V79.0625H9.37501V67.7608C9.37394 67.1126 9.56532 66.4787 9.9249 65.9395C10.2845 65.4002 10.7961 64.9798 11.3948 64.7316L20.3656 60.9934C20.4887 62.3447 21.1125 63.6012 22.1145 64.5161C23.1165 65.431 24.4244 65.9382 25.7813 65.9383C27.1381 65.9383 28.446 65.431 29.448 64.5161C30.4501 63.6012 31.0739 62.3448 31.197 60.9935L34.1105 62.2076L34.9521 60.1889L31.25 58.6461V55.9786C33.5317 54.9319 35.4655 53.2532 36.8225 51.1413C38.1794 49.0294 38.9026 46.5728 38.9063 44.0625V25.4688C38.9053 24.5988 38.5593 23.7648 37.9442 23.1496C37.329 22.5345 36.495 22.1884 35.625 22.1875H23.5938C22.8125 22.1879 22.0456 22.3974 21.3726 22.7943C20.6996 23.1912 20.1452 23.7609 19.7667 24.4444C19.5877 24.3984 19.4036 24.3751 19.2188 24.375H17.0313C15.8713 24.3762 14.7592 24.8375 13.9389 25.6577C13.1187 26.4779 12.6574 27.59 12.6563 28.75V44.0625C12.66 46.5728 13.3831 49.0294 14.7401 51.1413C16.097 53.2532 18.0308 54.9319 20.3125 55.9786V58.646L10.5531 62.7129C9.55529 63.1264 8.70272 63.8269 8.10352 64.7256C7.50433 65.6243 7.18552 66.6807 7.18751 67.7608V87.8125H9.37501V81.25H13.75V87.8125ZM29.0625 60.4688C29.0625 61.339 28.7168 62.1736 28.1015 62.7889C27.4861 63.4043 26.6515 63.75 25.7813 63.75C24.911 63.75 24.0764 63.4043 23.4611 62.7889C22.8457 62.1736 22.5 61.339 22.5 60.4688V56.7556C24.6496 57.3315 26.9129 57.3315 29.0625 56.7556V60.4688ZM14.8438 28.75C14.8445 28.1701 15.0752 27.6141 15.4853 27.204C15.8954 26.794 16.4513 26.5633 17.0313 26.5625H19.2188V28.75H21.4063V26.5625C21.407 25.9826 21.6377 25.4266 22.0478 25.0165C22.4579 24.6065 23.0138 24.3758 23.5938 24.375H35.625C35.915 24.3752 36.1931 24.4905 36.3982 24.6956C36.6033 24.9006 36.7186 25.1787 36.7188 25.4688V32.1754L35.9444 31.6595C35.5641 31.4054 35.1347 31.2337 34.684 31.1555C34.2333 31.0773 33.7712 31.0944 33.3275 31.2056L26.0483 33.0246C25.8734 33.0687 25.6904 33.0691 25.5153 33.0257L18.235 31.2056C17.9752 31.1401 17.7083 31.1071 17.4403 31.1073C16.7922 31.1071 16.1585 31.2989 15.6193 31.6585L14.8438 32.1754V28.75ZM14.8438 44.0625V34.8039L16.8337 33.4775C16.9607 33.3937 17.1037 33.3371 17.2537 33.3112C17.4037 33.2852 17.5574 33.2906 17.7052 33.3269L24.9866 35.148C25.509 35.2763 26.0548 35.276 26.577 35.1469L33.8573 33.3268C34.0053 33.29 34.1593 33.2845 34.3096 33.3106C34.4599 33.3367 34.603 33.3939 34.7299 33.4785L36.7188 34.8041V44.0625C36.7188 46.9633 35.5664 49.7453 33.5152 51.7965C31.4641 53.8477 28.6821 55 25.7813 55C22.8805 55 20.0985 53.8477 18.0473 51.7965C15.9961 49.7453 14.8438 46.9633 14.8438 44.0625Z" fill="#751B13"/>
<path d="M46.5625 65.9375C47.1424 65.9367 47.6984 65.706 48.1085 65.296C48.5185 64.8859 48.7492 64.3299 48.75 63.75V61.5625C48.7492 60.9826 48.5185 60.4266 48.1085 60.0165C47.6984 59.6065 47.1424 59.3758 46.5625 59.375H44.375C43.7951 59.3758 43.2391 59.6065 42.829 60.0165C42.419 60.4266 42.1883 60.9826 42.1875 61.5625V63.75C42.1883 64.3299 42.419 64.8859 42.829 65.296C43.2391 65.706 43.7951 65.9367 44.375 65.9375H46.5625ZM44.375 61.5625H46.5625L46.5647 63.75H44.375V61.5625Z" fill="#751B13"/>
<path d="M50.9375 60.4688C50.9375 59.8647 51.4272 59.375 52.0312 59.375C52.6353 59.375 53.125 59.8647 53.125 60.4688C53.125 61.0728 52.6353 61.5625 52.0312 61.5625C51.4272 61.5625 50.9375 61.0728 50.9375 60.4688Z" fill="#751B13"/>
<path d="M55.3125 60.4688C55.3125 59.8647 55.8022 59.375 56.4062 59.375H62.9688C63.5728 59.375 64.0625 59.8647 64.0625 60.4688C64.0625 61.0728 63.5728 61.5625 62.9688 61.5625H56.4062C55.8022 61.5625 55.3125 61.0728 55.3125 60.4688Z" fill="#751B13"/>
<path d="M66.25 60.4688C66.25 59.8647 66.7397 59.375 67.3438 59.375C67.9478 59.375 68.4375 59.8647 68.4375 60.4688C68.4375 61.0728 67.9478 61.5625 67.3438 61.5625C66.7397 61.5625 66.25 61.0728 66.25 60.4688Z" fill="#751B13"/>
<path d="M50.9375 64.8438C50.9375 64.2397 51.4272 63.75 52.0312 63.75C52.6353 63.75 53.125 64.2397 53.125 64.8438C53.125 65.4478 52.6353 65.9375 52.0312 65.9375C51.4272 65.9375 50.9375 65.4478 50.9375 64.8438Z" fill="#751B13"/>
<path d="M55.3125 64.8438C55.3125 64.2397 55.8022 63.75 56.4062 63.75H62.9688C63.5728 63.75 64.0625 64.2397 64.0625 64.8438C64.0625 65.4478 63.5728 65.9375 62.9688 65.9375H56.4062C55.8022 65.9375 55.3125 65.4478 55.3125 64.8438Z" fill="#751B13"/>
<path d="M66.25 64.8438C66.25 64.2397 66.7397 63.75 67.3438 63.75C67.9478 63.75 68.4375 64.2397 68.4375 64.8438C68.4375 65.4478 67.9478 65.9375 67.3438 65.9375C66.7397 65.9375 66.25 65.4478 66.25 64.8438Z" fill="#751B13"/>
<path d="M69.5312 55H41.0938C40.2238 55.0009 39.3898 55.347 38.7746 55.9621C38.1595 56.5773 37.8134 57.4113 37.8125 58.2812V84.5312C37.8134 85.4012 38.1595 86.2352 38.7746 86.8504C39.3898 87.4655 40.2238 87.8116 41.0938 87.8125H69.5312C70.4012 87.8116 71.2352 87.4655 71.8504 86.8504C72.4655 86.2352 72.8116 85.4012 72.8125 84.5312V58.2812C72.8116 57.4113 72.4655 56.5773 71.8504 55.9621C71.2352 55.347 70.4012 55.0009 69.5312 55ZM70.625 84.5312C70.6248 84.8213 70.5095 85.0994 70.3044 85.3044C70.0994 85.5095 69.8213 85.6248 69.5312 85.625H41.0938C40.8037 85.6248 40.5256 85.5095 40.3206 85.3044C40.1155 85.0994 40.0002 84.8213 40 84.5312V58.2812C40.0002 57.9912 40.1155 57.7131 40.3206 57.5081C40.5256 57.303 40.8037 57.1877 41.0938 57.1875H69.5312C69.8213 57.1877 70.0994 57.303 70.3044 57.5081C70.5095 57.7131 70.6248 57.9912 70.625 58.2812V84.5312Z" fill="#751B13"/>
<path d="M65.1562 71.4062H64.0625V70.3125C64.0617 69.7326 63.831 69.1766 63.421 68.7665C63.0109 68.3565 62.4549 68.1258 61.875 68.125H58.8181C58.522 68.1252 58.2292 68.1855 57.9572 68.3023L51.1703 71.2108C50.8927 71.3307 50.6432 71.5074 50.4378 71.7294C50.2324 71.9514 50.0757 72.2139 49.9776 72.5H45.4688C44.8888 72.5008 44.3329 72.7315 43.9228 73.1415C43.5127 73.5516 43.282 74.1076 43.2812 74.6875V76.875C43.282 77.4549 43.5127 78.0109 43.9228 78.421C44.3329 78.831 44.8888 79.0617 45.4688 79.0625V83.4375H47.6562V79.0625H49.9779C50.076 79.3485 50.2328 79.6109 50.4381 79.8329C50.6435 80.0549 50.8928 80.2316 51.1703 80.3517L57.9529 83.2591C58.2263 83.3763 58.5206 83.437 58.818 83.4375H61.875C62.4549 83.4367 63.0109 83.206 63.421 82.796C63.831 82.3859 64.0617 81.8299 64.0625 81.25V80.1562H65.1562C66.0262 80.1553 66.8602 79.8093 67.4754 79.1941C68.0905 78.579 68.4366 77.745 68.4375 76.875V74.6875C68.4366 73.8175 68.0905 72.9835 67.4754 72.3684C66.8602 71.7532 66.0262 71.4072 65.1562 71.4062ZM49.8438 76.875H45.4688V74.6875H49.8438V76.875ZM51.722 72.5L51.6008 72.2159L51.7225 72.5H51.722ZM61.875 81.25H58.8181L52.0312 78.3415V73.221L58.8181 70.3125H61.875V81.25ZM66.25 76.875C66.2498 77.165 66.1345 77.4431 65.9294 77.6482C65.7244 77.8533 65.4463 77.9686 65.1562 77.9688H64.0625V73.5938H65.1562C65.4463 73.5939 65.7244 73.7092 65.9294 73.9143C66.1345 74.1194 66.2498 74.3975 66.25 74.6875V76.875Z" fill="#751B13"/>
</svg>
