<svg width="91" height="91" viewBox="0 0 91 91" fill="none" xmlns="http://www.w3.org/2000/svg">
<circle opacity="0.1" cx="46" cy="45" r="45" fill="#DC8A26"/>
<path d="M65.9974 87.4156L62.9007 69.2863C62.567 67.333 61.1814 65.7639 59.2841 65.1916L50.9317 62.6715C50.7587 60.6297 49.9216 58.7035 48.5285 57.1788C47.4141 55.9593 46.0124 55.0713 44.4674 54.5813C44.7318 54.2879 44.9769 53.9954 45.2018 53.7094C47.1881 51.1833 48.2515 48.4002 48.5222 46.5011H49.1665C50.8424 46.5011 52.2059 45.1377 52.2059 43.4617V41.9036C52.2059 40.7851 51.5767 39.7716 50.6305 39.2457V35.499C50.6305 34.9329 50.1715 34.4739 49.6054 34.4739C49.0392 34.4739 48.5804 34.9327 48.5804 35.499V39.705C48.1812 39.7744 47.7049 39.8941 47.2176 40.0993C47.1677 40.1175 47.1192 40.1386 47.0732 40.1639C46.9632 40.214 46.853 40.267 46.7432 40.3266V32.0657C46.7432 29.7835 44.8865 27.9269 42.6043 27.9269H39.7749C38.799 27.9269 37.8457 28.2669 37.0902 28.8846L36.8125 29.1115C36.3025 29.5285 35.6588 29.7582 35 29.7582C34.3411 29.7582 33.6973 29.5285 33.1874 29.1115L32.9098 28.8846C32.1543 28.267 31.201 27.9269 30.2251 27.9269H27.3954C25.1132 27.9269 23.2565 29.7835 23.2565 32.0657V40.3266C23.1468 40.267 23.0366 40.214 22.9265 40.1639C22.8806 40.1386 22.8322 40.1175 22.7823 40.0993C22.295 39.8941 21.8185 39.7744 21.4194 39.705V29.0698C21.4194 25.7506 24.1199 23.0501 27.4392 23.0501H42.5604C45.8798 23.0501 48.5801 25.7506 48.5801 29.0698V30.6812C48.5801 31.2473 49.0391 31.7063 49.6051 31.7063C50.1711 31.7063 50.6302 31.2475 50.6302 30.6812V29.0698C50.6302 24.6202 47.0101 21 42.5604 21H27.4392C22.9894 21 19.3694 24.6202 19.3694 29.0698V39.2458C18.4231 39.7718 17.7939 40.7851 17.7939 41.9037V43.4618C17.7939 45.1378 19.1574 46.5012 20.8333 46.5012H21.4777C21.7483 48.4004 22.8118 51.1834 24.798 53.7095C25.0227 53.9953 25.2677 54.2875 25.5318 54.5806C21.9799 55.7088 19.3896 58.9023 19.0682 62.6715L10.7155 65.1916C8.81822 65.7639 7.43244 67.333 7.09884 69.2863L5.8413 76.6485C5.74601 77.2066 6.12117 77.7361 6.67912 77.8314C7.23693 77.927 7.76671 77.5517 7.86214 76.9936L9.11968 69.6314C9.32148 68.4496 10.1598 67.5005 11.3076 67.1543L19.0329 64.8234V66.8511C17.2621 67.177 15.7553 68.3934 15.1348 70.0788C14.97 70.5261 14.8676 70.9945 14.8304 71.4708L14.0838 81.0541C14.0275 81.776 14.2773 82.4949 14.7688 83.026C15.2603 83.5573 15.9574 83.8622 16.6813 83.8622H17.9594C18.5255 83.8622 18.9845 83.4034 18.9845 82.8371C18.9845 82.2708 18.5255 81.8121 17.9594 81.8121H16.6813C16.527 81.8121 16.3785 81.7473 16.2736 81.6338C16.1689 81.5206 16.1157 81.3675 16.1277 81.2137L16.8744 71.6302C16.8969 71.3416 16.9589 71.0579 17.0587 70.7871C17.4904 69.6147 18.6564 68.8208 19.9602 68.8116L20.1291 68.8104C20.137 68.8103 20.1448 68.8103 20.1526 68.8103C21.4199 68.8103 22.5416 69.5289 23.0148 70.646C23.1476 70.9592 23.2282 71.2904 23.2548 71.6302L24.0017 81.2138C24.0135 81.3675 23.9604 81.5206 23.8556 81.6339C23.7509 81.7471 23.6023 81.8121 23.4479 81.8121H22.1699C21.6037 81.8121 21.1448 82.2709 21.1448 82.8371C21.1448 83.4032 21.6037 83.8622 22.1699 83.8622H23.4479C24.1719 83.8622 24.8691 83.5574 25.3605 83.026C25.8521 82.4946 26.1019 81.7759 26.0456 81.0543L25.2987 71.4708C25.255 70.91 25.1217 70.3633 24.9025 69.8461C24.2272 68.2523 22.7834 67.1442 21.0828 66.8444V64.2049L24.6066 63.1416C24.9272 63.8169 25.5626 65.2761 26.8211 68.4216C28.0894 71.5954 29.6659 75.6634 31.1779 79.6182C31.1887 79.6514 31.2011 79.6838 31.2151 79.7155C32.2241 82.3557 33.2028 84.9416 34.04 87.1723C34.1901 87.5723 34.5725 87.8373 34.9997 87.8373C35.427 87.8373 35.8094 87.5723 35.9595 87.1723C36.7965 84.9416 37.7752 82.3557 38.7844 79.7155C38.7985 79.6838 38.8108 79.6512 38.8216 79.6182C40.3324 75.6658 41.9081 71.6003 43.1759 68.4275C44.436 65.2779 45.0719 63.8174 45.3927 63.1416L48.9165 64.2049V70.2595C46.4749 70.7338 44.6255 72.8871 44.6255 75.4653C44.6255 78.3899 47.0049 80.7693 49.9295 80.7693C52.8542 80.7693 55.2335 78.39 55.2335 75.4653C55.2335 72.8956 53.3963 70.7474 50.9666 70.2639V64.8236L58.692 67.1545C59.8397 67.5006 60.678 68.4497 60.8799 69.6315L63.9766 87.7609C64.028 88.0615 63.948 88.3554 63.7513 88.5886C63.5547 88.8215 63.2784 88.95 62.9733 88.95H7.02611C6.72109 88.95 6.44492 88.8217 6.24818 88.5886C6.05158 88.3554 5.97146 88.0616 6.02287 87.7609L7.04484 81.7778C7.14013 81.2197 6.76497 80.6902 6.20703 80.5949C5.64921 80.4992 5.11943 80.8747 5.024 81.4327L4.00203 87.4158C3.84958 88.3088 4.09718 89.2181 4.68124 89.9106C5.26558 90.603 6.12021 91 7.02611 91H62.9733C63.8792 91 64.734 90.603 65.3182 89.9105C65.9023 89.218 66.1499 88.3087 65.9974 87.4156ZM48.5924 41.7934C49.1386 41.6572 49.5771 41.6597 49.582 41.6598C49.7586 41.6622 49.9304 41.6209 50.0829 41.5409C50.1286 41.6545 50.1555 41.7766 50.1555 41.9037V43.4618C50.1555 44.0073 49.7118 44.4511 49.1662 44.4511H48.5924V41.7934ZM21.407 44.4511H20.8332C20.2877 44.4511 19.8439 44.0073 19.8439 43.4618V41.9037C19.8439 41.7766 19.871 41.6545 19.9165 41.541C20.0689 41.621 20.2407 41.6623 20.4174 41.6598C20.4252 41.6612 20.8625 41.6588 21.407 41.794V44.4511ZM23.4571 45.6005V42.9074C23.7677 43.0005 24.1075 42.9878 24.4211 42.857C24.9591 42.6325 25.3066 42.1112 25.3066 41.5286V32.0657C25.3066 30.914 26.2437 29.977 27.3954 29.977H30.2248C30.729 29.977 31.2216 30.1526 31.612 30.4717L31.8895 30.6987C32.7646 31.4143 33.8692 31.8082 34.9997 31.8082C36.1302 31.8082 37.2348 31.4141 38.1099 30.6987L38.3875 30.4717C38.7777 30.1526 39.2704 29.977 39.7746 29.977H42.604C43.7557 29.977 44.6928 30.914 44.6928 32.0657V41.5287C44.6928 42.1112 45.0403 42.6326 45.5783 42.8571C45.758 42.932 45.9461 42.9684 46.1326 42.9684C46.2716 42.9684 46.4096 42.948 46.5423 42.9084V45.6005C46.5423 47.0971 45.5076 50.0035 43.59 52.4423C42.9548 53.2502 42.1384 54.1181 41.1331 54.8766C41.1012 54.8979 41.0707 54.921 41.0416 54.9456C39.4842 56.0971 37.4817 56.9792 34.9997 56.9792C32.5177 56.9792 30.5152 56.0971 28.9577 54.9455C28.9286 54.921 28.8982 54.8979 28.8665 54.8767C27.8612 54.1181 27.0447 53.2502 26.4094 52.4423C24.4919 50.0037 23.4571 47.0971 23.4571 45.6005ZM41.7153 62.1619L34.9997 67.1814L28.2841 62.1619C28.9501 61.3155 29.3232 60.229 29.3232 59.2594V57.607C30.9024 58.4563 32.7868 59.0294 34.9997 59.0294C37.2127 59.0294 39.0972 58.4563 40.6763 57.607V59.2594C40.6763 60.229 41.0494 61.3155 41.7153 62.1619ZM26.5733 61.0177C26.0259 60.8092 25.419 60.775 24.8449 60.9308C24.8198 60.9366 24.7952 60.9433 24.7712 60.9505L21.2298 62.019C21.8288 59.0738 24.2203 56.7297 27.2731 56.2756V59.2594C27.2731 59.9025 26.986 60.5674 26.5733 61.0177ZM29.3554 69.2465C29.3535 69.2418 29.3516 69.237 29.3498 69.2323C29.2979 69.1009 29.2466 68.9713 29.1957 68.8432C29.1866 68.82 29.1774 68.7969 29.1683 68.7739C29.1185 68.6485 29.0691 68.5241 29.0205 68.4018C29.017 68.3931 29.0136 68.3847 29.0102 68.3759C28.8583 67.9941 28.7119 67.6278 28.5711 67.2768C28.5608 67.2514 28.5506 67.2256 28.5403 67.2003C28.4998 67.0996 28.4601 67.0005 28.4205 66.9026C28.406 66.8667 28.3917 66.8311 28.3773 66.7956C28.3391 66.7007 28.301 66.6064 28.2636 66.5141C28.2524 66.4865 28.2414 66.4597 28.2304 66.4322C28.1624 66.2646 28.096 66.1012 28.0312 65.9419C28.0137 65.8988 27.9958 65.855 27.9784 65.8124C27.953 65.7504 27.9282 65.6899 27.9033 65.6291C27.8765 65.5635 27.8497 65.4984 27.8235 65.4344C27.8136 65.4105 27.8034 65.3852 27.7936 65.3614C27.7856 65.3423 27.7784 65.3246 27.7706 65.3056C27.6522 65.018 27.5397 64.7469 27.4329 64.4919C27.4321 64.4898 27.4311 64.4878 27.4303 64.4857C27.3734 64.35 27.3178 64.2173 27.2643 64.091C27.2366 64.0255 27.2092 63.9611 27.1824 63.898L32.9581 68.2147L30.5447 69.24C30.5405 69.2418 30.5361 69.2435 30.5319 69.2454L29.5243 69.6735C29.4671 69.529 29.4112 69.3874 29.3554 69.2465ZM31.8013 75.523C31.5988 74.9976 31.3949 74.4692 31.1905 73.9413C30.8708 73.1157 30.5655 72.3306 30.2734 71.5828L30.6559 71.4202L32.2189 73.2371L31.8013 75.523ZM35.0195 83.8544C34.9901 83.7934 34.9552 83.7359 34.9147 83.6823C34.4515 82.458 33.8636 80.9088 33.2129 79.2043L34.17 73.9646H35.8295L36.7865 79.2043C36.1047 80.99 35.4923 82.6046 35.0195 83.8544ZM36.2139 71.9146H33.7855L32.6364 70.5789L34.9997 69.5749L37.363 70.5789L36.2139 71.9146ZM38.809 73.9413C38.6046 74.4692 38.4006 74.9976 38.1981 75.523L37.7806 73.2369L39.3435 71.4201L39.7261 71.5827C39.4339 72.3305 39.1286 73.1157 38.809 73.9413ZM42.7353 64.091C42.6845 64.2108 42.6318 64.3364 42.578 64.4647C42.5711 64.4813 42.564 64.4982 42.557 64.515C42.5038 64.6421 42.4497 64.772 42.3936 64.9072C42.3899 64.9161 42.3861 64.9255 42.3824 64.9346C42.334 65.0512 42.2844 65.1715 42.2339 65.2941C42.2245 65.3171 42.2156 65.3383 42.2062 65.3614C42.195 65.3889 42.1829 65.418 42.1716 65.4458C42.1492 65.5004 42.1263 65.5562 42.1034 65.612C42.0752 65.6808 42.0472 65.7493 42.0183 65.8197C42.0092 65.8421 41.9997 65.8655 41.9904 65.888C41.9191 66.0629 41.8458 66.2431 41.7709 66.4282C41.7591 66.4572 41.7475 66.4856 41.7357 66.515C41.6987 66.6065 41.6609 66.6999 41.6231 66.7938C41.6083 66.8306 41.5934 66.8672 41.5785 66.9044C41.5394 67.0013 41.4999 67.0995 41.46 67.199C41.4487 67.2268 41.4374 67.2552 41.4262 67.2831C41.2871 67.6293 41.1429 67.9904 40.9932 68.3666C40.9883 68.3791 40.9834 68.3912 40.9784 68.4038C40.93 68.5254 40.8811 68.6489 40.8316 68.7735C40.8224 68.7967 40.8131 68.82 40.8038 68.8434C40.7527 68.9721 40.7012 69.1023 40.6489 69.2345C40.648 69.237 40.647 69.2394 40.6461 69.2418C40.5897 69.3842 40.5331 69.5275 40.4754 69.6738L39.4669 69.2453C39.4633 69.2438 39.4598 69.2423 39.4563 69.2408L37.0416 68.215L42.8173 63.8982C42.7902 63.9611 42.7629 64.0254 42.7353 64.091ZM45.2282 60.9506C45.2281 60.9506 45.2278 60.9505 45.2276 60.9505C45.2268 60.9502 45.2259 60.95 45.225 60.9496C44.6303 60.7712 43.9959 60.8007 43.4262 61.0177C43.0135 60.5674 42.7265 59.9025 42.7265 59.2594V56.2741C45.7984 56.7269 48.1827 59.0491 48.7739 62.0203L45.2282 60.9506ZM53.1834 75.4653C53.1834 77.2596 51.7237 78.7192 49.9295 78.7192C48.1354 78.7192 46.6756 77.2596 46.6756 75.4653C46.6756 73.671 48.1354 72.2114 49.9295 72.2114C51.7237 72.2114 53.1834 73.671 53.1834 75.4653Z" fill="#751B13"/>
</svg>
