<svg width="99" height="91" viewBox="0 0 99 91" fill="none" xmlns="http://www.w3.org/2000/svg">
<circle opacity="0.1" cx="54" cy="45" r="45" fill="#DC8A26"/>
<g clip-path="url(#clip0)">
<path d="M42.0888 77.4797C42.4381 77.6447 42.8445 77.6436 43.1927 77.4786C45.9495 76.1702 48.5985 73.6799 48.5952 70.4718C48.5915 67.3636 44.7837 65.818 42.6341 68.0071C40.4418 65.8089 36.6692 67.3871 36.6719 70.4841C36.6756 73.7589 39.4725 76.2449 42.0888 77.4797ZM41.4202 69.7695C41.6098 70.1038 42.1038 70.4723 42.6709 70.4563C43.1564 70.4445 43.5997 70.1636 43.8432 69.7722C44.6908 68.4092 46.5429 69.0896 46.5445 70.4739C46.5466 72.6838 44.5556 74.4505 42.6368 75.4631C40.6885 74.459 38.7253 72.6758 38.7232 70.4819C38.7221 69.0159 40.6864 68.4781 41.4202 69.7695Z" fill="#751B13"/>
<path d="M36.3066 89.9745C36.3066 90.5406 36.7654 90.9999 37.332 90.9999H55.9135C57.3565 90.9999 58.5309 89.8261 58.5309 88.3831C58.5309 86.8498 58.5309 74.3267 58.5309 72.7928C58.5309 72.2267 58.0716 71.7675 57.5055 71.7675C56.9389 71.7675 56.4796 72.2267 56.4796 72.7928V77.7345H51.1369C49.6939 77.7345 48.52 78.9083 48.52 80.3519V88.9492H37.332C36.7659 88.9492 36.3066 89.4079 36.3066 89.9745ZM50.5708 80.3519C50.5708 80.0395 50.825 79.7853 51.1369 79.7853H56.4801V88.3825C56.4801 88.6949 56.2259 88.9492 55.9135 88.9492H50.5708V80.3519Z" fill="#751B13"/>
<path d="M58.5306 67.0213C58.5306 60.9587 53.339 58.7547 53.1184 58.6639C53.112 58.6612 53.1051 58.6585 53.0987 58.6559L40.8394 53.9081V51.0333C42.7956 49.5117 44.1489 47.2532 44.4801 44.6774C46.7338 44.3725 48.5944 42.5658 48.5944 40.351C48.5944 39.362 48.2222 38.4135 47.537 37.638V33.7084C47.537 26.7011 41.8365 21 34.8291 21C27.8217 21 22.1207 26.7011 22.1207 33.7084V37.7267C21.4371 38.4872 21.0632 39.4074 21.0632 40.351C21.0632 42.5578 22.9143 44.3709 25.1771 44.6774C25.5162 47.3461 26.94 49.6703 29.0255 51.1849V53.9086C29.0132 53.9134 16.7721 58.6585 16.7598 58.6639C16.5387 58.7547 11.3477 60.9582 11.3477 67.0213V88.3831C11.3477 89.8261 12.522 91 13.9651 91H32.5465C33.1126 91 33.5719 90.5407 33.5719 89.9746C33.5719 89.408 33.1126 88.9492 32.5465 88.9492H21.3591V80.352C21.3591 78.9084 20.1847 77.7345 18.7417 77.7345H13.3984V67.0213C13.3984 62.4039 17.2944 60.6655 17.5331 60.5635L26.062 57.2566C27.4944 60.3163 31.5778 61.8581 34.9322 61.8581C38.2823 61.8581 42.37 60.3189 43.8029 57.2556L52.3446 60.5635C52.5294 60.6431 56.4793 62.4044 56.4793 67.0213V68.0078C56.4793 68.5739 56.9386 69.0331 57.5047 69.0331C58.0713 69.0331 58.53 68.5739 58.53 68.0078V67.0213H58.5306ZM13.3984 79.7853H18.7417C19.0536 79.7853 19.3078 80.0395 19.3078 80.352V88.9492H13.9645C13.6526 88.9492 13.3984 88.695 13.3984 88.3831V79.7853ZM46.5442 40.351C46.5442 41.4186 45.6192 42.302 44.5618 42.5759V38.1294C45.6822 38.4231 46.5442 39.3262 46.5442 40.351ZM25.0964 42.5765C24.0374 42.302 23.114 41.417 23.114 40.351C23.114 39.3289 24.0999 38.5027 25.0964 38.1913V42.5765ZM25.1402 36.0722C24.8123 36.1304 24.4871 36.2206 24.1714 36.3408V33.7084C24.1714 27.8317 28.9523 23.0508 34.8286 23.0508C40.7053 23.0508 45.4862 27.8317 45.4862 33.7084V36.2666C45.1738 36.1566 44.8416 36.0786 44.5618 36.0359C44.5618 35.7993 44.566 35.6134 44.5196 35.4292C44.3855 34.8983 43.836 34.4059 41.4274 31.8189C40.6712 31.0061 39.7163 30.9682 39.0038 31.4339C35.4315 33.7677 31.0747 34.9405 27.0527 34.6516C26.1464 34.5827 25.3362 35.1969 25.1402 36.0722ZM27.1472 43.447C27.1472 42.6518 27.1472 37.3892 27.1472 36.713C31.5025 36.9673 36.1456 35.701 39.963 33.2561C41.4375 34.8396 42.252 35.6866 42.511 36.0043V43.447C42.511 47.6543 39.0791 50.9991 34.9637 51.0039C34.9599 51.0039 34.9567 51.0044 34.9535 51.0044C34.9509 51.0044 34.9482 51.0039 34.9455 51.0039C30.2789 51.0007 27.1472 47.3787 27.1472 43.447ZM38.7886 52.2557V54.228C37.7776 55.3212 36.3747 55.9135 34.9322 55.9135C33.4822 55.9135 32.0872 55.3212 31.0763 54.228V52.3203C32.3233 52.8218 33.6691 53.0552 34.9535 53.0552C36.2908 53.0552 37.6121 52.7706 38.7886 52.2557ZM29.3347 58.0732C28.7622 57.6769 28.2986 57.1391 27.9809 56.5132L29.7625 55.8222C31.0886 57.1514 32.9311 57.9643 34.9322 57.9643C36.8783 57.9643 38.7373 57.1899 40.1024 55.8222L41.8845 56.5122C40.4196 59.3998 34.1482 61.4015 29.3347 58.0732Z" fill="#751B13"/>
</g>
<defs>
<clipPath id="clip0">
<rect width="70" height="70" fill="white" transform="translate(0 21)"/>
</clipPath>
</defs>
</svg>
