<svg width="92" height="93" viewBox="0 0 92 93" fill="none" xmlns="http://www.w3.org/2000/svg">
<circle opacity="0.1" cx="47" cy="45" r="45" fill="#DC8A26"/>
<g clip-path="url(#clip0)">
<path d="M64.0094 71.2204C62.2768 69.3628 59.3561 69.2613 57.4987 70.9937L56.9499 71.5056L51.727 68.0934L52.0898 60.198C52.3579 54.3604 52.0726 52.4971 50.0537 46.9062C48.4911 42.5792 46.3597 37.1727 44.6472 32.8283C43.4215 29.719 42.3629 27.0337 42.0233 26.0252C42.0218 26.0209 42.0204 26.0166 42.0188 26.0121C41.1257 23.4459 38.7796 22.6289 36.924 23.1486C36.2182 23.3462 35.5363 23.7563 35 24.3592C34.4636 23.7563 33.7819 23.3462 33.076 23.1486C31.22 22.6292 28.8742 23.4458 27.981 26.012C27.9795 26.0163 27.978 26.0206 27.9765 26.0251C27.7045 26.8326 26.9617 28.7387 26.1994 30.6779C25.9233 31.3808 26.269 32.1744 26.9718 32.4505C27.6751 32.7273 28.4683 32.3808 28.7445 31.6783C29.6377 29.4055 30.2895 27.7234 30.5657 26.9048C30.9231 25.8863 31.7128 25.6068 32.3387 25.782C32.991 25.9647 33.5776 26.676 33.2708 28.1252L30.0774 41.8577C29.3935 42.3558 28.7279 43.1804 28.178 44.4991C26.5946 48.2966 25.2631 52.3467 24.5251 55.6103C24.3586 56.347 24.8207 57.0789 25.5571 57.2456C26.2935 57.4121 27.0257 56.9501 27.1922 56.2136C27.897 53.0963 29.1762 49.2103 30.7018 45.5516C31.4168 43.8372 32.0336 43.8932 32.2657 43.9138C33.0079 43.9805 33.5575 44.6434 33.4909 45.3913C33.4283 46.0953 33.1546 48.6608 32.8897 51.142C32.6115 53.7485 32.3487 56.2105 32.284 56.9383C32.1247 58.7278 32.4392 60.8992 32.7721 63.1979C33.7372 69.8617 34.9304 78.1066 26.034 83.6158L15.1092 73.4267L20.4218 69.9556C20.8269 69.6908 21.062 69.2317 21.0398 68.7482L20.6412 60.0727C20.3891 54.585 20.6172 53.0982 22.5178 47.8351C23.0111 46.4688 23.585 44.929 24.272 43.1276C24.5411 42.4221 24.1872 41.632 23.4817 41.3629C22.7762 41.0938 21.9862 41.4478 21.717 42.1532C21.0242 43.9699 20.4449 45.5246 19.9459 46.9063C17.927 52.4972 17.6416 54.3605 17.9097 60.1982L18.2723 68.0936L13.0495 71.5058L12.5008 70.9941C10.6433 69.2613 7.72267 69.3631 5.98994 71.2208C4.25762 73.0783 4.35934 75.9991 6.2169 77.7315L21.2631 91.7646C22.1495 92.5913 23.2776 93.0003 24.4035 93.0003C25.6372 93.0003 26.868 92.509 27.7738 91.5379C28.6131 90.6381 29.0517 89.4652 29.0089 88.2355C28.9747 87.2561 28.6377 86.3346 28.0476 85.5759C31.4426 83.348 33.7378 80.5957 34.9996 77.2344C36.2613 80.5958 38.5564 83.348 41.9514 85.5759C41.3614 86.3346 41.0243 87.2561 40.9902 88.2355C40.9474 89.4652 41.386 90.6381 42.2253 91.538C43.1312 92.5093 44.3617 93.0003 45.5956 93.0003C46.7214 93.0003 47.8498 92.5912 48.736 91.7646L63.7822 77.7315V77.7314C65.6402 75.9987 65.7419 73.078 64.0094 71.2204ZM25.7745 89.6724C25.0704 90.4275 23.8833 90.4685 23.1286 89.7645L8.0824 75.7314C7.32753 75.0275 7.28624 73.8404 7.99024 73.0856C8.35831 72.6907 8.85845 72.4912 9.35997 72.4912C9.81745 72.4912 10.276 72.6575 10.6362 72.9934L25.6823 87.0266C26.0481 87.3676 26.2591 87.8307 26.2764 88.3303C26.2938 88.8301 26.1156 89.3068 25.7745 89.6724ZM33.0219 41.2687L35 32.7628L36.978 41.2687C36.2123 41.4367 35.534 41.8186 35 42.3431C34.466 41.8186 33.7876 41.4367 33.0219 41.2687ZM35 57.294C35.0337 57.7504 35.0306 58.2483 35 58.7843C34.9695 58.2483 34.9662 57.7504 35 57.294ZM37.2276 63.1978C37.5606 60.899 37.875 58.7277 37.7158 56.9382C37.6509 56.2104 37.3882 53.7484 37.1101 51.1417C36.8452 48.6607 36.5715 46.0951 36.5089 45.391C36.4423 44.6431 36.9919 43.9804 37.7341 43.9135C37.9666 43.893 38.5831 43.837 39.298 45.5514C40.8235 49.2102 42.1028 53.0962 42.8076 56.2133C42.9741 56.9498 43.7061 57.4117 44.4427 57.2453C45.1792 57.0786 45.6412 56.3467 45.4747 55.61C44.7366 52.3464 43.4052 48.2964 41.8216 44.4989C41.2717 43.1799 40.6063 42.3554 39.9222 41.8573L36.729 28.1252C36.4223 26.676 37.0087 25.9647 37.6611 25.782C38.287 25.6068 39.077 25.8866 39.4343 26.9052C39.7981 27.9838 40.8158 30.5651 42.1033 33.8311C43.8094 38.1589 45.9326 43.5449 47.4817 47.8348C49.3823 53.098 49.6103 54.5847 49.3581 60.0724L48.9596 68.7479C48.9374 69.2314 49.1725 69.6907 49.5776 69.9554L54.8902 73.4264L43.9655 83.6155C35.0694 78.1064 36.2626 69.8614 37.2276 63.1978ZM61.9175 75.7314L46.8714 89.7647C46.1165 90.4685 44.9296 90.4272 44.2254 89.6725C43.8843 89.3068 43.7061 88.8301 43.7235 88.3304C43.7409 87.8307 43.9518 87.3677 44.3176 87.0267L59.3638 72.9934C59.7239 72.6575 60.1825 72.4912 60.64 72.4912C61.1413 72.4912 61.6415 72.691 62.0095 73.0856C62.7137 73.8404 62.6724 75.0275 61.9175 75.7314Z" fill="#751B13"/>
<path d="M24.6794 38.1603C24.855 38.2357 25.0377 38.2714 25.2173 38.2714C25.7478 38.2714 26.2525 37.9607 26.4746 37.4424L26.4751 37.4414C26.7724 36.7474 26.4509 35.944 25.7567 35.6466C25.0627 35.3487 24.2586 35.6711 23.9612 36.3651C23.6638 37.0591 23.9853 37.8628 24.6794 38.1603Z" fill="#751B13"/>
</g>
<defs>
<clipPath id="clip0">
<rect width="70" height="70" fill="white" transform="translate(0 23)"/>
</clipPath>
</defs>
</svg>
